<?xml version="1.0" encoding="iso-8859-1"?>
<!-- Generator: Adobe Illustrator 19.0.0, SVG Export Plug-In . SVG Version: 6.00 Build 0)  -->
<svg version="1.1" id="Capa_1" xmlns="http://www.w3.org/2000/svg" xmlns:xlink="http://www.w3.org/1999/xlink" x="0px" y="0px"
	 viewBox="0 0 496 496" style="enable-background:new 0 0 496 496;" xml:space="preserve">
<g>
	<path style="fill:#FFA64D;" d="M264,280c0,53.016,42.984,96,96,96s96-42.984,96-96c0-24.304-9.104-46.44-24-63.352V216h-33.576
		c-9.008,0-17.424,4.504-22.424,12s-13.416,12-22.424,12h-3.152c-9.008,0-17.424-4.504-22.424-12s-13.416-12-22.424-12H288v0.648
		C273.104,233.56,264,255.696,264,280z"/>
	<path style="fill:#FFA64D;" d="M208,216c-32,0-40,24-64,24s-24-24-48-24c-20.184,0-28.968,11.224-31.272,14.824L96,456h80
		l33.336-240H208z"/>
</g>
<g>
	<path style="fill:#333333;" d="M496,48V0H360c-13.232,0-24,10.768-24,24v128h-56v61.696c-15.504,18.68-24,42.104-24,66.304
		c0,46.176,30.272,85.376,72,98.912V448l-72,17.752V496h208v-30.248l-70.064-17.512L392,448.232v-69.32
		c41.728-13.536,72-52.728,72-98.912c0-20.624-6.224-40.648-17.632-57.688C474.752,215.768,496,190.344,496,160
		c0-35.288-28.712-64-64-64c-19.12,0-36.264,8.472-48,21.808V48H496z M432,32V16h16v16H432z M480,32h-16V16h16V32z M352,24
		c0-4.408,3.584-8,8-8h56v16h-48v120h-16V24z M480,160c0,8.792-2.416,17.016-6.56,24.112l-26.288-21.904l31.456-13.48
		C479.488,152.352,480,156.112,480,160z M440,177.08l23.192,19.328C456.72,201.96,448.76,205.8,440,207.28V177.08z M385.392,148.728
		l7.632,3.272h-8.304C384.912,150.896,385.128,149.808,385.392,148.728z M448,478.248V480H272v-1.752L328.984,464h62.032
		L448,478.248z M376,448.176l-32-0.112V382.64c5.232,0.816,10.544,1.36,16,1.36s10.768-0.552,16-1.36V448.176z M360,368
		c-48.52,0-88-39.48-88-88c0-21.328,7.816-41.944,22.008-58.064l1.992-2.272V168h128v4.136v47.536l1.992,2.264
		C440.184,238.056,448,258.672,448,280C448,328.52,408.52,368,360,368z M472.304,134.024L440,147.864V112.72
		C453.528,115.008,465.128,122.936,472.304,134.024z M424,112.72v35.424l-32.344-14.064C398.824,122.96,410.448,115.008,424,112.72z
		"/>
	<path style="fill:#333333;" d="M312,248c-13.232,0-24,10.768-24,24s10.768,24,24,24s24-10.768,24-24S325.232,248,312,248z M312,280
		c-4.416,0-8-3.592-8-8s3.584-8,8-8s8,3.592,8,8S316.416,280,312,280z"/>
	<path style="fill:#333333;" d="M384,296c-13.232,0-24,10.768-24,24s10.768,24,24,24s24-10.768,24-24S397.232,296,384,296z M384,328
		c-4.416,0-8-3.592-8-8s3.584-8,8-8s8,3.592,8,8S388.416,328,384,328z"/>
	<path style="fill:#333333;" d="M216,448h-30.816l38.736-278.904L224,144h-24V0h-48v112h16V16h16v128h-16v-16h-16v16h-24.552
		C123.488,112.48,96.576,88,64,88c-35.288,0-64,28.712-64,64c0,32.072,23.736,58.632,54.544,63.224L86.816,448H56
		c-13.232,0-24,10.768-24,24s10.768,24,24,24h160c13.232,0,24-10.768,24-24S229.232,448,216,448z M21.808,174.872
		C18.104,168.072,16,160.28,16,152c0-3.888,0.512-7.648,1.392-11.272l27,11.568L21.808,174.872z M111.28,144H94.976l14.832-6.36
		C110.448,139.704,110.912,141.832,111.28,144z M102.456,123.392L72,136.44v-31.72C84.424,106.816,95.216,113.688,102.456,123.392z
		 M56,104.72v35.144l-32.304-13.848C30.872,114.936,42.472,107.008,56,104.72z M31.808,187.504L48.4,170.912l3.824,27.568
		C44.504,196.52,37.536,192.696,31.808,187.504z M64,167.448V160h144v7.448L169.04,448h-66.08L64,167.448z M216,480H56
		c-4.416,0-8-3.592-8-8s3.584-8,8-8h160c4.416,0,8,3.592,8,8S220.416,480,216,480z"/>
	<path style="fill:#333333;" d="M136,272c0-13.232-10.768-24-24-24s-24,10.768-24,24s10.768,24,24,24S136,285.232,136,272z M112,280
		c-4.416,0-8-3.592-8-8s3.584-8,8-8s8,3.592,8,8S116.416,280,112,280z"/>
	<path style="fill:#333333;" d="M144,352c-13.232,0-24,10.768-24,24s10.768,24,24,24s24-10.768,24-24S157.232,352,144,352z M144,384
		c-4.416,0-8-3.592-8-8s3.584-8,8-8s8,3.592,8,8S148.416,384,144,384z"/>
</g>
<g>
</g>
<g>
</g>
<g>
</g>
<g>
</g>
<g>
</g>
<g>
</g>
<g>
</g>
<g>
</g>
<g>
</g>
<g>
</g>
<g>
</g>
<g>
</g>
<g>
</g>
<g>
</g>
<g>
</g>
</svg>
