<?xml version="1.0" encoding="UTF-8" standalone="no"?>
<svg
   xmlns:dc="http://purl.org/dc/elements/1.1/"
   xmlns:cc="http://creativecommons.org/ns#"
   xmlns:rdf="http://www.w3.org/1999/02/22-rdf-syntax-ns#"
   xmlns:svg="http://www.w3.org/2000/svg"
   xmlns="http://www.w3.org/2000/svg"
   xmlns:xlink="http://www.w3.org/1999/xlink"
   xmlns:sodipodi="http://sodipodi.sourceforge.net/DTD/sodipodi-0.dtd"
   xmlns:inkscape="http://www.inkscape.org/namespaces/inkscape"
   data-name="Layer 1"
   viewBox="0 0 110.01064 109.0565"
   x="0px"
   y="0px"
   version="1.1"
   id="svg34"
   sodipodi:docname="noun_876592_cc.svg"
   width="110.01064"
   height="109.0565"
   inkscape:version="0.92.2 (30a58d1, 2017-08-07)">
  <metadata
     id="metadata38">
    <rdf:RDF>
      <cc:Work
         rdf:about="">
        <dc:format>image/svg+xml</dc:format>
        <dc:type
           rdf:resource="http://purl.org/dc/dcmitype/StillImage" />
        <dc:title>Artboard 34</dc:title>
      </cc:Work>
    </rdf:RDF>
  </metadata>
  <sodipodi:namedview
     pagecolor="#ffffff"
     bordercolor="#666666"
     borderopacity="1"
     objecttolerance="10"
     gridtolerance="10"
     guidetolerance="10"
     inkscape:pageopacity="0"
     inkscape:pageshadow="2"
     inkscape:window-width="1680"
     inkscape:window-height="995"
     id="namedview36"
     showgrid="false"
     fit-margin-top="0"
     fit-margin-left="0"
     fit-margin-right="0"
     fit-margin-bottom="0"
     inkscape:zoom="4.17193"
     inkscape:cx="52.966935"
     inkscape:cy="42.336554"
     inkscape:window-x="0"
     inkscape:window-y="27"
     inkscape:window-maximized="1"
     inkscape:current-layer="svg34" />
  <defs
     id="defs4">
    <linearGradient
       id="linearGradient1008"
       inkscape:collect="always">
      <stop
         id="stop1004"
         offset="0"
         style="stop-color:#fb923b;stop-opacity:1" />
      <stop
         id="stop1006"
         offset="1"
         style="stop-color:#f66439;stop-opacity:1" />
    </linearGradient>
    <linearGradient
       inkscape:collect="always"
       id="linearGradient998">
      <stop
         style="stop-color:#fb923b;stop-opacity:1"
         offset="0"
         id="stop994" />
      <stop
         style="stop-color:#f66439;stop-opacity:1"
         offset="1"
         id="stop996" />
    </linearGradient>
    <style
       id="style2">.cls-1{fill:none;}.cls-1,.cls-2,.cls-3{stroke:#000;stroke-linecap:round;stroke-linejoin:round;stroke-width:4px;}.cls-3{fill:#a8c9cc;}</style>
    <style
       id="style969"
       type="text/css">
   
    .fil0 {fill:black}
   
  </style>
    <linearGradient
       inkscape:collect="always"
       xlink:href="#linearGradient998"
       id="linearGradient1000"
       x1="-132.54216"
       y1="-84.251648"
       x2="69.159691"
       y2="118.90131"
       gradientUnits="userSpaceOnUse" />
    <linearGradient
       inkscape:collect="always"
       xlink:href="#linearGradient1008"
       id="linearGradient1002"
       x1="271.41461"
       y1="108.41935"
       x2="343.96307"
       y2="184.76256"
       gradientUnits="userSpaceOnUse" />
    <linearGradient
       inkscape:collect="always"
       xlink:href="#linearGradient1008"
       id="linearGradient1010"
       gradientUnits="userSpaceOnUse"
       x1="271.41461"
       y1="108.41935"
       x2="343.96307"
       y2="184.76256" />
    <linearGradient
       inkscape:collect="always"
       xlink:href="#linearGradient998"
       id="linearGradient1012"
       gradientUnits="userSpaceOnUse"
       x1="-132.54216"
       y1="-84.251648"
       x2="69.159691"
       y2="118.90131" />
    <linearGradient
       inkscape:collect="always"
       xlink:href="#linearGradient998"
       id="linearGradient1014"
       gradientUnits="userSpaceOnUse"
       x1="-132.54216"
       y1="-84.251648"
       x2="69.159691"
       y2="118.90131" />
  </defs>
  <title
     id="title6">Artboard 34</title>
  <g
     id="g864"
     transform="translate(-251.37726,-89.2643)"
     style="fill:url(#linearGradient1002);fill-opacity:1;stroke:none;stroke-opacity:1">
    <path
       id="path847"
       d="m 295.71025,98.490313 c -0.70402,-0.702155 -0.30687,-1.906664 0.67673,-2.052371 l 6.15711,-0.898606 2.75129,-5.54695 c 0.42103,-0.970781 1.79774,-0.970781 2.21878,0 l 2.75128,5.54695 6.09055,0.898606 c 0.99088,0.146661 1.38404,1.365437 0.66564,2.063465 l -4.43756,4.337713 1.05392,6.13493 c 0.1396,0.95786 -0.84678,1.68333 -1.71956,1.2647 l -5.54695,-2.8955 -5.54694,2.8955 c -0.88716,0.46464 -1.92228,-0.28877 -1.75284,-1.2758 l 1.05392,-6.13492 z m 20.64574,85.911157 -6.15711,-0.8986 -2.75129,-5.54695 c -0.42103,-0.97079 -1.79774,-0.97079 -2.21878,0 l -2.75128,5.54695 -6.09055,0.8986 c -0.99088,0.14666 -1.38404,1.36544 -0.66564,2.06347 l 4.43756,4.33771 -1.05392,6.13493 c -0.11907,0.94811 0.85677,1.65322 1.71956,1.24252 l 5.54694,-2.89551 5.54695,2.89551 c 0.88716,0.46463 1.92228,-0.28878 1.75284,-1.2758 l -1.05392,-6.13493 4.43756,-4.33771 c 0.67603,-0.70987 0.27082,-1.8869 -0.69892,-2.03019 z m -61.22723,-31.4512 c -0.16944,0.98702 0.86568,1.74043 1.75284,1.2758 l 5.54695,-2.89551 5.54695,2.89551 c 0.88715,0.46463 1.92227,-0.28878 1.75283,-1.2758 l -1.05392,-6.13493 4.43756,-4.33771 c 0.7184,-0.69803 0.32524,-1.91681 -0.66563,-2.06347 l -6.15712,-0.89861 -2.75128,-5.54695 c -0.42104,-0.97078 -1.79775,-0.97078 -2.21878,0 l -2.75129,5.54695 -6.15711,0.89861 c -0.99088,0.14666 -1.38403,1.36544 -0.66564,2.06347 l 4.43756,4.33771 z m 105.22564,-12.53611 -6.15711,-0.89861 -2.75129,-5.54695 c -0.42104,-0.97078 -1.79774,-0.97078 -2.21878,0 l -2.75129,5.54695 -6.15711,0.89861 c -0.99088,0.14666 -1.38403,1.36544 -0.66564,2.06347 l 4.43756,4.33771 -1.05392,6.13493 c -0.16943,0.98702 0.86568,1.74043 1.75284,1.2758 l 5.54695,-2.89551 5.54695,2.89551 c 0.88716,0.46463 1.92227,-0.28878 1.75284,-1.2758 l -1.05392,-6.13493 4.43756,-4.33771 c 0.71839,-0.69803 0.32524,-1.91681 -0.66564,-2.06347 z m -29.0882,-24.69502 -1.05392,6.13493 c -0.16944,0.98702 0.86567,1.74043 1.75283,1.27579 l 5.54695,-2.8955 5.54695,2.8955 c 0.88716,0.46464 1.92227,-0.28877 1.75284,-1.27579 l -1.05392,-6.13493 4.43756,-4.33772 c 0.73799,-0.73519 0.26301,-1.99724 -0.77658,-2.06346 l -6.15711,-0.89861 -2.75129,-5.54695 c -0.42103,-0.97078 -1.79774,-0.97078 -2.21878,0 l -2.75128,5.54695 -6.09056,0.89861 c -0.99087,0.14666 -1.38403,1.36544 -0.66563,2.06346 z m -45.97312,55.8356 -6.15712,-0.89861 -2.75129,-5.54695 c -0.42103,-0.97078 -1.79774,-0.97078 -2.21878,0 l -2.75128,5.54695 -6.09055,0.89861 c -0.99088,0.14666 -1.38403,1.36543 -0.66564,2.06346 l 4.43756,4.33772 -1.05392,6.13492 c -0.11907,0.94811 0.85677,1.65323 1.71956,1.24252 l 5.54695,-2.89551 5.54695,2.89551 c 0.88715,0.46464 1.92227,-0.28877 1.75283,-1.2758 l -1.05392,-6.13492 4.43756,-4.33772 c 0.67603,-0.70986 0.27083,-1.88689 -0.69891,-2.03018 z m -16.1971,-55.80232 -1.05392,6.13493 c -0.11907,0.9481 0.85677,1.65322 1.71956,1.24251 l 5.54695,-2.8955 5.54695,2.8955 c 0.88715,0.46464 1.92227,-0.28877 1.75283,-1.27579 l -1.05392,-6.13493 4.43756,-4.33772 c 0.723,-0.70912 0.3062,-1.93966 -0.69891,-2.06346 l -6.15712,-0.89861 -2.75129,-5.54695 c -0.42103,-0.97078 -1.79774,-0.97078 -2.21878,0 l -2.75128,5.54695 -6.09055,0.89861 c -0.99088,0.14666 -1.38403,1.36544 -0.66564,2.06346 z m 62.17022,62.17022 -1.05392,6.13492 c -0.16944,0.98703 0.86567,1.74044 1.75283,1.2758 l 5.54695,-2.89551 5.54695,2.89551 c 0.88716,0.46464 1.92227,-0.28877 1.75284,-1.2758 l -1.05392,-6.13492 4.43756,-4.33772 c 0.68787,-0.736 0.2269,-1.94113 -0.77658,-2.03018 l -6.15711,-0.89861 -2.75129,-5.54695 c -0.42103,-0.97078 -1.79774,-0.97078 -2.21878,0 l -2.75128,5.54695 -6.09056,0.89861 c -0.99087,0.14666 -1.38403,1.36543 -0.66563,2.06346 z"
       inkscape:connector-curvature="0"
       sodipodi:nodetypes="cccccccccccccccccccccccccccccccccccccccccccccccccccccccccccccccccccccccccccccccccccccccccccccccccccccccccccccccccccccccccccccccc"
       style="fill:url(#linearGradient1010);fill-opacity:1;stroke:none;stroke-width:1.10939002;stroke-opacity:1" />
  </g>
  <g
     style="clip-rule:evenodd;fill:url(#linearGradient1000);fill-opacity:1;fill-rule:evenodd;image-rendering:optimizeQuality;shape-rendering:geometricPrecision;text-rendering:geometricPrecision"
     id="g992"
     transform="matrix(0.49555189,0,0,0.49555189,71.496944,49.040758)">
    <g
       id="g975"
       transform="matrix(13.018973,0,0,13.018973,-88.392532,-44.048547)"
       style="fill:url(#linearGradient1014);fill-opacity:1">
      <path
         id="path973"
         d="m 4.2333,0.474 c 2.0762,0 3.7593,1.6831 3.7593,3.7593 0,2.0762 -1.6831,3.7593 -3.7593,3.7593 C 2.1571,7.9926 0.474,6.3095 0.474,4.2333 0.474,2.1571 2.1571,0.474 4.2333,0.474 Z M 2.4144,3.3494 H 2.442 C 2.3679,3.3184 2.3277,3.2822 2.3277,3.2414 2.3277,3.1405 2.5729,3.0677 2.9689,3.0316 3.2021,3.0103 3.4926,2.9944 3.8163,2.9861 l -0.497,-0.5801 -2e-4,3e-4 -5e-4,0.002 -1e-4,4e-4 -5e-4,0.0023 -4e-4,0.0018 -1e-4,7e-4 -5e-4,0.0024 -2e-4,0.0014 -3e-4,0.0011 -4e-4,0.0023 -1e-4,10e-4 -3e-4,0.0014 -3e-4,0.0025 v 7e-4 l -4e-4,0.0016 -2e-4,0.0024 -10e-5,5e-4 -2e-4,0.002 -2e-4,0.0023 v 3e-4 l -3e-4,0.0022 -1e-4,0.0022 v 1e-4 l -10e-5,-1e-4 H 3.3114 l -0.002,-2e-4 -4e-4,1e-4 -0.0024,-2e-4 H 3.3048 3.3042 3.3018 3.3002 3.2993 L 3.2969,2.4394 3.2956,2.4395 H 3.2945 l -0.0024,1e-4 H 3.2911 3.2897 l -0.005,4e-4 -0.0024,2e-4 h -5e-4 l -0.002,3e-4 -0.0048,5e-4 -0.0023,4e-4 h -2e-4 l -0.0024,3e-4 -0.0021,3e-4 -4e-4,10e-5 -0.0024,5e-4 -0.0017,2e-4 -7e-4,2e-4 -0.0024,4e-4 -0.0015,2e-4 -0.001,3e-4 -0.0025,6e-4 -10e-4,2e-4 -0.0013,4e-4 -0.0025,6e-4 -8e-4,1e-4 -0.0016,5e-4 -0.0025,6e-4 -4e-4,1e-4 -0.002,6e-4 -0.0024,7e-4 -2e-4,10e-5 -0.002,8e-4 -0.0025,6e-4 v 2e-4 l -0.0024,6e-4 -0.0021,8e-4 -3e-4,2e-4 -0.0024,8e-4 -0.0019,8e-4 -5e-4,1e-4 -0.0023,9e-4 -0.0015,6e-4 -8e-4,4e-4 -0.0024,0.0011 -0.0012,4e-4 -0.0011,5e-4 -0.0024,0.0012 -10e-4,3e-4 -0.0013,7e-4 -0.0024,0.0012 -7e-4,3e-4 -0.0016,8e-4 -0.0023,0.0012 -4e-4,2e-4 -0.0018,0.001 -0.0023,0.0012 -10e-5,2e-4 -0.0022,0.0011 -0.0022,0.0014 -1e-4,-10e-5 -0.0022,0.0014 -0.0019,0.0011 -3e-4,3e-4 -0.0023,0.0014 -0.0015,10e-4 -7e-4,3e-4 -0.0022,0.0016 -0.0013,9e-4 -10e-4,5e-4 -0.0022,0.0016 -9e-4,7e-4 -0.0011,8e-4 -0.0021,0.0017 -8e-4,5e-4 -0.0015,10e-4 -0.0021,0.0017 -5e-4,5e-4 L 3.1703,2.4861 3.1682,2.4877 3.168,2.488 3.1661,2.4896 3.164,2.4913 3.162,2.493 3.1602,2.4948 3.16,2.4949 3.1581,2.4968 3.1566,2.4982 l -5e-4,5e-4 -0.002,0.0018 -0.0012,0.0012 -7e-4,7e-4 -0.002,0.0019 -8e-4,10e-4 -9e-4,9e-4 -0.0019,0.002 -6e-4,8e-4 -10e-4,0.0011 -0.0019,0.002 -5e-4,5e-4 -0.0012,0.0015 -0.0016,0.0021 -4e-4,3e-4 -0.0014,0.0017 -0.0015,0.002 -2e-4,1e-4 -0.0015,0.0019 -0.0015,0.002 v 2e-4 l -0.0017,0.002 -0.0011,0.0017 -4e-4,4e-4 -0.0014,0.0021 -0.0011,0.0015 -4e-4,7e-4 -0.0015,0.0022 -8e-4,0.0012 -5e-4,9e-4 -0.0014,0.0021 -6e-4,10e-4 -8e-4,0.0012 -0.0013,0.0023 -5e-4,6e-4 -8e-4,0.0015 -0.0013,0.0022 -2e-4,4e-4 -0.001,0.0018 -0.0011,0.0023 -2e-4,2e-4 -0.001,0.002 -0.0011,0.0022 -0.0012,0.0024 -8e-4,0.0019 -3e-4,3e-4 -9e-4,0.0023 -9e-4,0.0017 -2e-4,5e-4 -10e-4,0.0024 -6e-4,0.0014 -3e-4,9e-4 -10e-4,0.0023 -5e-4,0.0013 -4e-4,10e-4 -8e-4,0.0023 -8e-4,0.0024 -9e-4,0.0023 -2e-4,7e-4 -6e-4,0.0017 -8e-4,0.0023 -1e-4,4e-4 -6e-4,0.002 -6e-4,0.0024 -1e-4,10e-5 -7e-4,0.0023 -0.0011,0.0047 -6e-4,0.002 -1e-4,3e-4 -4e-4,0.0024 -4e-4,0.0017 -1e-4,8e-4 -5e-4,0.0023 -3e-4,0.0015 -2e-4,9e-4 -4e-4,0.0025 -2e-4,10e-4 -2e-4,0.0013 -3e-4,0.0025 -2e-4,8e-4 -2e-4,0.0016 -2e-4,0.0024 -3e-4,0.0024 -2e-4,0.0023 -1e-4,4e-4 -2e-4,0.002 -2e-4,0.0024 10e-5,10e-5 h -2e-4 L 3.09,2.6323 3.0878,2.6322 h -2e-4 l -0.0024,-1e-4 h -0.002 -4e-4 -0.004 L 3.078,2.632 H 3.0755 L 3.0741,2.6321 3.073,2.632 3.0707,2.6321 3.0695,2.6322 H 3.0682 l -0.0024,10e-5 -8e-4,1e-4 -0.0017,2e-4 -0.0024,2e-4 h -5e-4 l -0.0019,10e-5 -0.0025,4e-4 h -2e-4 l -0.0023,2e-4 -0.0022,5e-4 -10e-5,-10e-5 -0.0025,3e-4 -0.0021,4e-4 -0.0026,5e-4 -2e-4,-1e-4 -0.0018,4e-4 h -6e-4 l -0.0024,6e-4 -0.0016,2e-4 -9e-4,3e-4 -0.0024,5e-4 -0.0012,3e-4 -0.0012,2e-4 -0.0025,7e-4 -8e-4,2e-4 -0.0016,4e-4 -0.0025,6e-4 -5e-4,2e-4 -0.0018,6e-4 -0.0025,7e-4 -2e-4,1e-4 -0.0021,7e-4 -0.0025,7e-4 -0.0024,9e-4 -0.002,7e-4 -3e-4,10e-5 -0.0023,8e-4 -0.0019,8e-4 -7e-4,2e-4 -0.0023,9e-4 -0.0015,6e-4 -8e-4,4e-4 -0.0024,0.0011 -0.0012,4e-4 -0.001,5e-4 -0.0025,0.0011 -10e-4,5e-4 -0.0013,6e-4 -0.0023,0.0011 -8e-4,4e-4 -0.0015,8e-4 -0.0023,0.0012 -5e-4,2e-4 -0.0018,10e-4 -0.0022,0.0012 -2e-4,2e-4 -0.0022,0.0011 -0.0021,0.0013 h -1e-4 L 2.9728,2.6619 2.971,2.663 l -4e-4,3e-4 -0.0022,0.0013 -0.0016,0.0011 -7e-4,3e-4 -0.0021,0.0015 -0.0014,10e-4 -9e-4,5e-4 -0.0022,0.0015 -10e-4,8e-4 -0.0011,8e-4 -0.0022,0.0016 -8e-4,6e-4 -0.0014,0.0011 -0.002,0.0016 -5e-4,4e-4 -0.0016,0.0013 -0.0021,0.0017 -3e-4,2e-4 -0.0019,0.0015 -0.002,0.0018 -0.002,0.0017 -0.0019,0.0018 -10e-5,1e-4 -0.002,0.0019 -0.0016,0.0014 -4e-4,5e-4 -0.0019,0.0019 -0.0012,0.0011 -7e-4,7e-4 -0.0019,0.0019 -10e-4,0.001 -8e-4,8e-4 -0.0019,0.002 -7e-4,9e-4 -10e-4,0.0011 -0.0018,0.002 -6e-4,5e-4 -0.0011,0.0015 -0.0017,0.002 -4e-4,4e-4 -0.0013,0.0017 -0.0016,0.0019 -1e-4,2e-4 -0.0016,0.0019 -0.0014,0.002 h -1e-4 L 2.9102,2.719 2.909,2.7207 l -3e-4,4e-4 -0.0015,0.0021 -10e-4,0.0015 -4e-4,6e-4 -0.0015,0.0022 -8e-4,0.0012 -6e-4,10e-4 -0.0013,0.0021 -6e-4,0.001 -7e-4,0.0012 -0.0014,0.0022 -5e-4,8e-4 -8e-4,0.0013 -0.0013,0.0022 -3e-4,5e-4 -9e-4,0.0018 -0.0013,0.0023 v 2e-4 l -0.0012,0.0021 -10e-4,0.0021 -0.0011,0.0024 -9e-4,0.002 -2e-4,1e-4 -0.0011,0.0024 -8e-4,0.0017 -2e-4,5e-4 -0.001,0.0024 -6e-4,0.0014 -4e-4,8e-4 -8e-4,0.0024 -5e-4,0.0013 -5e-4,10e-4 -8e-4,0.0023 -8e-4,0.0024 -9e-4,0.0023 -2e-4,6e-4 -5e-4,0.0018 -8e-4,0.0023 -1e-4,4e-4 -6e-4,0.0019 -7e-4,0.0025 v 10e-5 l -6e-4,0.0023 -0.0013,0.0047 -5e-4,0.0019 -1e-4,4e-4 -5e-4,0.0024 -4e-4,0.0017 -10e-5,7e-4 -5e-4,0.0024 -3e-4,0.0015 -1e-4,9e-4 -5e-4,0.0024 -2e-4,0.0011 -1e-4,0.0012 -4e-4,0.0025 -2e-4,9e-4 -2e-4,0.0016 -2e-4,0.0023 -2e-4,0.0024 -3e-4,0.0025 -10e-5,2e-4 -1e-4,0.0021 -3e-4,0.0024 1e-4,10e-5 v 0 L 2.8685,2.8249 2.8664,2.8248 H 2.8661 2.8639 2.8618 l -5e-4,-1e-4 -0.004,-10e-5 H 2.8565 2.8541 L 2.8527,2.8247 H 2.8515 2.8492 l -0.0011,1e-4 H 2.8468 l -0.0025,10e-5 h -8e-4 l -0.0016,3e-4 -0.0025,10e-5 -5e-4,1e-4 -0.0019,10e-5 -0.0024,4e-4 -3e-4,-10e-5 -0.0023,4e-4 -0.0023,3e-4 h -10e-5 l -0.0023,3e-4 -0.0022,4e-4 -0.0026,5e-4 -2e-4,-1e-4 -0.0017,4e-4 -7e-4,1e-4 -0.0024,5e-4 -0.0016,3e-4 -8e-4,2e-4 -0.0025,4e-4 -0.0012,5e-4 -0.0013,10e-5 -0.0023,7e-4 -10e-4,2e-4 -0.0015,4e-4 -0.0024,6e-4 -6e-4,2e-4 -0.0018,6e-4 -0.0024,6e-4 -3e-4,2e-4 -0.0021,7e-4 -0.0024,7e-4 -0.0024,9e-4 -0.0021,7e-4 h -3e-4 l -0.0023,9e-4 -0.0019,8e-4 -5e-4,2e-4 -0.0025,9e-4 -0.0014,6e-4 -9e-4,5e-4 -0.0023,9e-4 -0.0013,5e-4 -0.0011,5e-4 -0.0022,0.0011 -0.0012,5e-4 -0.0012,7e-4 -0.0023,10e-4 -9e-4,4e-4 -0.0016,8e-4 -0.0023,0.0012 -3e-4,2e-4 -0.0019,9e-4 -0.0023,0.0013 -1e-4,1e-4 -0.0022,0.0012 -0.002,0.0013 -2e-4,-10e-5 -0.0023,0.0015 -0.0018,0.0011 -4e-4,3e-4 -0.0022,0.0013 -0.0016,10e-4 -6e-4,5e-4 -0.0022,0.0014 -0.0014,10e-4 -9e-4,5e-4 -0.0021,0.0015 -0.0011,8e-4 -0.0012,8e-4 -0.0021,0.0016 -7e-4,6e-4 L 2.7316,2.868 2.7295,2.8696 2.7291,2.87 2.7274,2.8712 2.7253,2.873 2.725,2.8732 2.7232,2.8747 2.7211,2.8765 2.719,2.8783 2.7174,2.8799 l -5e-4,3e-4 -0.002,0.0019 -0.0014,0.0013 -6e-4,6e-4 -0.002,0.002 -10e-4,9e-4 -9e-4,9e-4 -0.0019,0.0021 -7e-4,7e-4 -0.0012,0.0012 -0.0018,0.002 -3e-4,4e-4 -0.0015,0.0016 -0.0018,0.002 -1e-4,10e-5 -0.0017,0.0019 -0.0015,0.0019 -3e-4,2e-4 -0.0015,0.0022 -0.0013,0.0014 -5e-4,6e-4 -0.0016,0.0021 -9e-4,0.0012 -0.0023,0.0031 -6e-4,8e-4 -9e-4,0.0014 -0.0016,0.0021 -4e-4,5e-4 -0.0011,0.0017 -0.0013,0.0022 -2e-4,1e-4 -0.0013,0.0021 -0.0013,0.002 -10e-5,2e-4 -0.0014,0.0022 -9e-4,0.0017 -5e-4,7e-4 -0.0013,0.0021 -6e-4,0.0013 -6e-4,0.0011 -0.0012,0.0022 -6e-4,10e-4 -6e-4,0.0014 -0.0012,0.0022 -4e-4,6e-4 -7e-4,0.0018 L 2.667,2.9485 2.666,2.9507 v 1e-4 l -10e-4,0.0024 -8e-4,0.0019 -1e-4,5e-4 -0.0011,0.0023 -5e-4,0.0016 -4e-4,8e-4 -9e-4,0.0025 -4e-4,10e-4 -5e-4,0.0013 -8e-4,0.0024 -2e-4,6e-4 -5e-4,0.0019 -8e-4,0.0023 -10e-5,3e-4 -7e-4,0.002 -7e-4,0.0025 h -10e-5 l -6e-4,0.0025 -5e-4,0.0019 -1e-4,5e-4 -7e-4,0.0024 -3e-4,0.0017 -2e-4,8e-4 -5e-4,0.0024 -3e-4,0.0012 -3e-4,0.0013 -5e-4,0.0024 -1e-4,8e-4 -3e-4,0.0017 -5e-4,0.0025 v 3e-4 l -4e-4,0.0022 -2e-4,0.0024 -1e-4,10e-5 -3e-4,0.0024 -2e-4,0.0021 v 3e-4 l -4e-4,0.0025 -1e-4,0.0016 -10e-5,8e-4 -1e-4,0.0024 -10e-5,0.0013 -1e-4,0.0012 -2e-4,0.0026 L 2.607,3.0581 2.8487,1.8569 2.6351,1.6077 2.245,1.9039 2.1281,1.7498 2.7194,1.3009 2.8363,1.4549 2.8307,1.4592 3.0422,1.7059 4.2426,1.6293 4.1968,1.6694 4.1953,1.6693 h -8e-4 L 4.1921,1.6691 H 4.1908 4.1897 L 4.1874,1.6689 4.1862,1.669 H 4.185 L 4.1826,1.6691 4.1815,1.669 4.1802,1.6691 4.1779,1.6692 h -0.001 l -0.0014,2e-4 -0.0048,2e-4 -0.0024,3e-4 h -6e-4 l -0.0018,2e-4 -0.0048,5e-4 -0.0024,4e-4 -10e-5,-10e-5 -0.0022,4e-4 -0.0025,3e-4 h -10e-5 l -0.0023,5e-4 -0.0022,3e-4 h -2e-4 l -0.0023,5e-4 -0.0021,4e-4 -4e-4,2e-4 -0.0023,6e-4 -0.0018,2e-4 -7e-4,3e-4 -0.0024,5e-4 -0.0014,4e-4 -8e-4,2e-4 -0.0025,6e-4 -0.0012,4e-4 -0.0011,3e-4 -0.0023,8e-4 -0.0012,3e-4 -0.0012,4e-4 -0.0023,7e-4 -0.0011,2e-4 -0.0014,6e-4 -0.0023,8e-4 -6e-4,2e-4 -0.0016,6e-4 -0.0025,0.001 h -5e-4 l -0.0018,8e-4 -0.0023,10e-4 -3e-4,1e-4 -0.002,8e-4 -0.0023,0.0011 h -10e-5 l -0.0022,0.001 -0.0023,10e-4 -0.0023,0.0011 -0.0022,9e-4 v 3e-4 l -0.0023,0.0011 -0.0019,9e-4 -4e-4,3e-4 -0.0023,0.0011 -0.0016,0.001 -6e-4,3e-4 -0.0022,0.0013 -0.0014,8e-4 -8e-4,5e-4 -0.0022,0.0013 -0.0013,8e-4 -10e-4,6e-4 -0.0021,0.0013 -10e-4,7e-4 -0.0012,7e-4 -0.0021,0.0013 -0.001,7e-4 -0.0012,9e-4 -0.0021,0.0016 -7e-4,5e-4 -0.0014,0.001 -0.0021,0.0015 -5e-4,4e-4 -0.0016,0.0013 -0.0021,0.0016 -3e-4,2e-4 -0.0018,0.0014 -0.002,0.0017 -2e-4,2e-4 L 4.052,1.7192 4.0499,1.721 4.0479,1.7227 4.0461,1.7243 4.046,1.7245 4.044,1.7263 4.0425,1.7279 l -4e-4,2e-4 -0.002,0.0019 -0.0013,0.0013 -4e-4,5e-4 -0.002,0.0019 -0.0011,0.0013 -7e-4,6e-4 -0.0018,0.002 -9e-4,10e-4 -9e-4,9e-4 -0.0017,0.002 -8e-4,8e-4 -9e-4,0.0012 -0.0016,0.0019 -7e-4,7e-4 -10e-4,0.0013 -0.0016,0.002 -4e-4,6e-4 -0.0012,0.0014 -0.0015,0.0022 -4e-4,2e-4 -0.0013,0.0017 -0.0014,0.002 v 2e-4 L 4.015,1.7596 4.0135,1.7617 l 1e-4,10e-5 -0.0015,0.0021 -0.0013,0.0019 -10e-5,2e-4 -0.0014,0.0021 -10e-4,0.0017 -3e-4,5e-4 -0.0013,0.0022 -9e-4,0.0015 -4e-4,6e-4 -0.0013,0.0022 -7e-4,0.0013 -5e-4,8e-4 -0.0012,0.0023 -6e-4,0.0011 -5e-4,0.0011 -0.0011,0.0022 -6e-4,10e-4 -6e-4,0.0013 -10e-4,0.0021 -3e-4,8e-4 -8e-4,0.0016 -0.0011,0.0022 -10e-5,5e-4 -7e-4,0.0018 -0.0011,0.0022 -10e-5,4e-4 -7e-4,0.0019 -0.0011,0.0023 v 10e-5 l -8e-4,0.0022 -8e-4,0.0022 10e-5,10e-5 -9e-4,0.0023 -7e-4,0.002 -2e-4,3e-4 -7e-4,0.0025 -6e-4,0.0016 -2e-4,6e-4 -6e-4,0.0023 -5e-4,0.0016 -2e-4,8e-4 -6e-4,0.0022 -5e-4,0.0015 -1e-4,9e-4 -6e-4,0.0024 -3e-4,0.0011 -4e-4,0.0013 -4e-4,0.0024 -3e-4,8e-4 -1e-4,0.0015 -5e-4,0.0023 -2e-4,8e-4 -3e-4,0.0015 -4e-4,0.0024 -1e-4,6e-4 -3e-4,0.0019 -4e-4,0.0023 v 4e-4 l -3e-4,0.002 -2e-4,0.0024 -1e-4,10e-5 -2e-4,0.0023 -2e-4,0.0023 v 0 l -2e-4,0.0024 -0.0022,0.0019 -0.0024,-2e-4 -10e-5,1e-4 -0.0022,-2e-4 H 3.9692 L 3.9691,1.8616 H 3.9668 3.9647 3.9644 3.9619 3.96 3.9596 L 3.9571,1.8617 H 3.9554 l -7e-4,2e-4 -0.0024,2e-4 H 3.9508 l -9e-4,10e-5 H 3.9475 l -0.0013,3e-4 -0.0011,10e-5 -0.0024,2e-4 -10e-4,10e-5 -0.0014,10e-5 -0.0025,4e-4 -7e-4,10e-5 -0.0016,2e-4 -0.0024,3e-4 -6e-4,2e-4 -0.0018,3e-4 -0.0025,4e-4 -2e-4,10e-5 -0.0022,4e-4 -0.0024,6e-4 -1e-4,-1e-4 -0.0023,4e-4 -0.0022,6e-4 h -1e-4 l -0.0024,6e-4 -0.002,6e-4 h -4e-4 l -0.0024,7e-4 -0.0018,5e-4 -6e-4,10e-5 -0.0025,7e-4 -0.0014,6e-4 -8e-4,2e-4 -0.0024,7e-4 -0.0013,4e-4 -0.0011,5e-4 -0.0023,8e-4 -0.0012,3e-4 -0.0012,4e-4 -0.0024,9e-4 -9e-4,4e-4 -0.0014,6e-4 -0.0024,9e-4 -6e-4,3e-4 -0.0016,7e-4 -0.0024,0.001 -4e-4,2e-4 -0.0018,8e-4 -0.0024,0.001 -2e-4,2e-4 -0.0021,9e-4 -0.0023,0.0012 v 0 l -0.0022,0.0011 -0.0021,0.0011 -3e-4,10e-5 -0.0021,0.0012 -0.0019,10e-4 -4e-4,2e-4 -0.0022,0.0013 -0.0017,10e-4 -6e-4,2e-4 -0.0021,0.0015 -0.0015,9e-4 -8e-4,3e-4 -0.0022,0.0016 -0.0013,6e-4 -9e-4,8e-4 -0.0022,0.0014 -10e-4,6e-4 -0.0012,8e-4 -0.0021,0.0016 -8e-4,5e-4 -0.0013,10e-4 -0.0021,0.0016 -7e-4,4e-4 -0.0015,0.0012 -0.002,0.0015 -4e-4,4e-4 -0.0017,0.0014 -0.0021,0.0017 -3e-4,10e-5 -0.0018,0.0015 -0.002,0.0019 -0.002,0.0017 -0.0018,0.0016 -2e-4,2e-4 -0.0019,0.0018 -0.0017,0.0015 -3e-4,4e-4 -0.0019,0.0019 -0.0014,0.0013 -5e-4,5e-4 -0.0019,0.0019 -0.0011,0.0012 -7e-4,7e-4 -0.0018,0.002 -8e-4,9e-4 -0.001,0.0011 -0.0018,0.002 -6e-4,6e-4 -0.001,0.0013 -0.0018,0.002 -4e-4,5e-4 -0.0012,0.0014 -0.0016,0.0022 -3e-4,2e-4 -0.0014,0.0017 -0.0015,0.002 -10e-5,2e-4 -0.0014,0.002 -0.0015,0.0019 h -1e-4 l -0.0015,0.0022 -0.0012,0.0018 -2e-4,4e-4 -0.0014,0.002 -0.0011,0.0016 -4e-4,6e-4 -0.0013,0.0022 -9e-4,0.0014 -5e-4,6e-4 -0.0013,0.0023 -7e-4,0.0011 -6e-4,0.0011 -0.0012,0.0021 -5e-4,10e-4 -7e-4,0.0012 -0.0013,0.0023 -3e-4,7e-4 -8e-4,0.0015 -0.0011,0.0022 -3e-4,6e-4 -8e-4,0.0017 -0.0011,0.0022 -10e-5,3e-4 -10e-4,0.002 -9e-4,0.0023 h -1e-4 l -10e-4,0.0021 -9e-4,0.0023 -10e-5,2e-4 -9e-4,0.0022 -8e-4,0.0019 v 4e-4 l -10e-4,0.0024 -0.0016,0.0046 -5e-4,0.0014 -3e-4,9e-4 -7e-4,0.0024 -4e-4,0.0012 -4e-4,0.0012 -7e-4,0.0023 -2e-4,9e-4 -4e-4,0.0014 -7e-4,0.0024 -2e-4,6e-4 -4e-4,0.0017 -5e-4,0.0024 -2e-4,4e-4 -4e-4,0.002 -5e-4,0.0024 -10e-5,10e-5 -5e-4,0.0022 -4e-4,0.0023 10e-5,10e-5 -5e-4,0.0024 -5e-4,0.0021 1e-4,3e-4 -3e-4,0.0024 -4e-4,0.0019 -10e-5,5e-4 -2e-4,0.0024 -3e-4,0.0016 -1e-4,7e-4 -10e-5,0.0024 -1e-4,0.0014 -10e-5,0.0011 -3e-4,0.0023 H 3.7568 L 3.7558,2.0547 3.7535,2.0545 3.7523,2.0544 3.751,2.0543 3.7485,2.0542 H 3.7477 3.7463 3.7438 3.7432 3.7414 3.739 3.7386 3.7365 l -0.0024,2e-4 h -1e-4 l -0.0023,1e-4 -0.0023,1e-4 -1e-4,10e-5 -0.0024,2e-4 -0.002,1e-4 h -5e-4 l -0.0024,3e-4 -0.0017,2e-4 h -6e-4 l -0.0026,3e-4 -0.0015,3e-4 -9e-4,1e-4 -0.0023,4e-4 -0.0013,2e-4 -0.0011,2e-4 -0.0025,4e-4 -10e-4,1e-4 -0.0014,3e-4 -0.0024,5e-4 -8e-4,2e-4 -0.0017,3e-4 -0.0024,6e-4 -4e-4,10e-5 -0.002,4e-4 -0.0024,7e-4 -2e-4,1e-4 -0.0023,5e-4 -0.0023,7e-4 h -1e-4 l -0.0023,8e-4 -0.0021,6e-4 h -4e-4 l -0.0023,7e-4 -0.0018,7e-4 -5e-4,10e-5 -0.0025,9e-4 -0.0015,5e-4 -8e-4,3e-4 -0.0023,8e-4 -0.0014,6e-4 -0.0011,4e-4 -0.0023,9e-4 -0.0011,5e-4 -0.0013,5e-4 -0.0023,0.001 -9e-4,4e-4 -0.0014,7e-4 -0.0023,9e-4 -6e-4,4e-4 -0.0017,8e-4 -0.0023,0.0012 -4e-4,10e-5 -0.0019,0.001 -0.0023,0.0011 H 3.6482 L 3.6461,2.0791 3.644,2.0803 h -3e-4 l -0.0022,0.0013 -0.0018,0.0011 -5e-4,2e-4 -0.0022,0.0013 -0.0016,0.0011 -7e-4,2e-4 -0.0022,0.0015 -0.0013,8e-4 -8e-4,7e-4 -0.0022,0.0014 -0.0012,8e-4 -10e-4,6e-4 -0.0021,0.0015 -10e-4,7e-4 -0.0012,10e-4 -0.0022,0.0014 -7e-4,6e-4 -0.0013,0.0012 -0.0022,0.0015 -4e-4,4e-4 L 3.6132,2.1009 3.6111,2.1027 3.611,2.1028 3.6091,2.1044 3.6071,2.1061 3.605,2.1079 3.6032,2.1096 3.6029,2.1098 3.601,2.1116 3.5994,2.113 l -4e-4,5e-4 -0.0019,0.0018 -0.0013,0.0013 -6e-4,6e-4 -0.0019,0.0019 -0.001,10e-4 -8e-4,9e-4 -0.0019,0.002 -7e-4,9e-4 -0.001,0.0011 -0.0017,0.0019 -5e-4,6e-4 -0.0013,0.0014 -0.0017,0.0021 -3e-4,3e-4 -0.0013,0.0016 -0.0018,0.002 v 2e-4 l -0.0015,0.002 -0.0014,0.0019 -2e-4,1e-4 -0.0016,0.002 -0.0012,0.0018 -2e-4,4e-4 -0.0016,0.0021 -10e-4,0.0015 -5e-4,5e-4 -0.0014,0.0022 -8e-4,0.0013 -5e-4,9e-4 -0.0021,0.0033 -7e-4,10e-4 -0.0014,0.0022 -3e-4,8e-4 -9e-4,0.0014 -0.0013,0.0022 -2e-4,6e-4 -0.0022,0.0038 -1e-4,4e-4 L 3.5571,2.1694 3.556,2.1716 v 2e-4 L 3.555,2.174 3.5528,2.1785 3.5519,2.1803 3.5518,2.1807 3.5507,2.1831 3.5502,2.1846 3.548,2.19 l -9e-4,0.0023 -5e-4,0.0012 -4e-4,0.0012 -8e-4,0.0023 -2e-4,8e-4 -0.0012,0.0039 -2e-4,6e-4 -6e-4,0.0017 -7e-4,0.0024 -10e-5,3e-4 -6e-4,0.0021 -5e-4,0.0023 -7e-4,0.0025 -5e-4,0.0021 v 1e-4 l -7e-4,0.0025 -3e-4,0.0019 -2e-4,5e-4 -5e-4,0.0023 -1e-4,0.0017 -2e-4,8e-4 -5e-4,0.0024 -10e-5,0.0012 -3e-4,0.0011 -4e-4,0.0025 v 10e-4 l -5e-4,0.0035 -1e-4,3e-4 v 7e-4 l -2e-4,0.0017 -3e-4,0.0024 v 5e-4 l -2e-4,0.0019 -10e-5,0.0024 -2e-4,2e-4 -0.0025,-2e-4 -0.0018,-1e-4 -6e-4,-10e-5 H 3.5279 3.5264 3.5255 3.5253 3.5217 l -10e-4,-1e-4 -0.0025,1e-4 H 3.5171 3.5159 3.5134 l -8e-4,10e-5 H 3.511 l -0.0024,2e-4 h -7e-4 l -0.0019,2e-4 0.6283,0.7331 c 0.0654,-6e-4 0.1318,-9e-4 0.1989,-9e-4 0.5295,0 1.0123,0.0199 1.3642,0.052 0.3959,0.0361 0.6412,0.1089 0.6412,0.2098 0,0.0408 -0.0402,0.077 -0.1143,0.108 H 6.2507 L 4.4488,5.0412 h 0.0055 v 1.5854 l 0.9576,0.539 H 4.4289 4.2362 3.2531 L 4.2108,6.6266 V 5.0412 h 0.0055 z m 2.3058,0.6008 c 0.0741,0 0.134,0.0566 0.134,0.1266 0,0.0699 -0.0599,0.1266 -0.134,0.1266 -0.074,0 -0.134,-0.0567 -0.134,-0.1266 0,-0.07 0.06,-0.1266 0.134,-0.1266 z M 4.4907,3.7591 c 0.0475,0 0.086,0.0363 0.086,0.0812 0,0.0448 -0.0385,0.0812 -0.086,0.0812 -0.0475,0 -0.086,-0.0364 -0.086,-0.0812 0,-0.0449 0.0385,-0.0812 0.086,-0.0812 z m 0.363,-0.2055 c 0.095,0 0.172,0.0727 0.172,0.1624 0,0.0897 -0.077,0.1625 -0.172,0.1625 -0.095,0 -0.172,-0.0728 -0.172,-0.1625 0,-0.0897 0.077,-0.1624 0.172,-0.1624 z M 4.1098,3.3287 3.962,3.1561 C 3.5825,3.1629 3.2448,3.1798 2.9845,3.2036 2.686,3.2308 2.5011,3.2373 2.5011,3.2414 2.5011,3.2456 2.686,3.252 2.9847,3.2792 3.2782,3.306 3.6705,3.324 4.1098,3.3287 Z M 4.2821,3.153 4.4335,3.3296 C 4.9226,3.3273 5.3609,3.3085 5.6817,3.2792 5.9803,3.252 6.1652,3.2456 6.1652,3.2414 6.1652,3.2373 5.9803,3.2308 5.6818,3.2036 5.3392,3.1723 4.8625,3.1529 4.3332,3.1529 Z"
         class="fil0"
         inkscape:connector-curvature="0"
         style="fill:url(#linearGradient1012);fill-opacity:1" />
    </g>
  </g>
</svg>
