<?xml version="1.0" encoding="utf-8"?>
<!-- Generator: Adobe Illustrator 16.0.0, SVG Export Plug-In . SVG Version: 6.00 Build 0)  -->
<!DOCTYPE svg PUBLIC "-//W3C//DTD SVG 1.1//EN" "http://www.w3.org/Graphics/SVG/1.1/DTD/svg11.dtd">
<svg version="1.1" id="Layer_1" xmlns="http://www.w3.org/2000/svg" xmlns:xlink="http://www.w3.org/1999/xlink" x="0px" y="0px"
	 width="1451.404px" height="1200px" viewBox="0 0 1451.404 1200" enable-background="new 0 0 1451.404 1200" xml:space="preserve">
<g>
	<path fill="#F39E31" d="M818.346,744.894l-17.931,23.159v0.067v352.583c0,41.094,33.621,74.715,74.715,74.715
		c41.093,0,74.715-33.621,74.715-74.715V710.324c-0.434-9.345-0.951-18.523-1.615-26.964c-1.118,6.986-76.984,14.195-79.827,20.444
		C858.692,723.976,840.757,739.664,818.346,744.894z"/>
	<circle fill="#F9BC35" cx="688.344" cy="112.069" r="112.069"/>
	<circle fill="#52CED1" cx="1173.982" cy="485.639" r="37.358"/>
	<path fill="#F9BC35" d="M1189.45,59.245c-29.186-29.186-76.463-29.186-105.649,0L940.79,202.256
		c-14.012,14.013-33.014,21.882-52.827,21.882H725.719h-37.373H556.161c-20.423,0-39.957-8.362-54.055-23.138L356.221,49.905
		c-34.365-22.984-80.695-13.607-103.607,20.721c-22.875,34.328-13.607,80.732,20.721,103.607L460.12,361.018
		c12.257,8.171,26.705,12.55,41.442,12.55c0,0,68.793,0,120.839,0c31.656,0,57.116,0,57.116,0l87.115,248.948l-171.448,42.87
		c-46.545,11.637-84.672,44.919-102.488,89.464l-60.523,226.02c-15.321,38.343,3.319,81.793,41.627,97.15
		c9.119,3.612,18.496,5.361,27.727,5.361c29.659-0.037,57.714-17.802,69.423-46.988l46.335-190.569
		c8.911-22.276,27.972-38.915,51.247-44.734l131.887-32.967v-0.066l92.646-23.16c22.413-5.229,40.349-20.918,50.057-41.094
		c2.841-6.248,3.994-13.455,5.112-20.443c-7.683-97.368-31.815-142.815-101.628-309.791h72.283
		c39.633,0,77.638-15.747,105.662-43.767l164.906-164.906C1218.636,135.711,1218.636,88.431,1189.45,59.245z"/>
	<path fill="#57DEFF" d="M127.992,597.708h37.357v37.358c0,20.649,16.708,37.357,37.357,37.357s37.355-16.708,37.355-37.357v-37.358
		h37.357c20.649,0,37.357-16.708,37.357-37.357c0-20.65-16.708-37.357-37.357-37.357h-37.357v-37.356
		c0-20.65-16.708-37.358-37.357-37.358s-37.357,16.708-37.357,37.358v37.356h-37.355c-20.649,0.003-37.357,16.711-37.357,37.357
		C90.635,580.999,107.342,597.708,127.992,597.708z"/>
	<path fill="#E673AD" d="M1211.34,821.851h-37.357c-20.648,0-37.356,16.708-37.356,37.356c0,20.646,16.708,37.357,37.356,37.357
		h37.357v37.357c0,20.649,16.708,37.357,37.358,37.357c20.648,0,37.356-16.708,37.356-37.357v-37.357h37.357
		c20.649,0,37.357-16.707,37.357-37.357c0-20.648-16.708-37.356-37.357-37.356h-37.357v-37.357c0-20.65-16.708-37.358-37.356-37.358
		s-37.358,16.708-37.358,37.358V821.851z"/>
</g>
</svg>
