<?xml version="1.0" encoding="utf-8"?>
<!-- Generator: Adobe Illustrator 16.0.0, SVG Export Plug-In . SVG Version: 6.00 Build 0)  -->
<!DOCTYPE svg PUBLIC "-//W3C//DTD SVG 1.1//EN" "http://www.w3.org/Graphics/SVG/1.1/DTD/svg11.dtd">
<svg version="1.1" id="Capa_1" xmlns="http://www.w3.org/2000/svg" xmlns:xlink="http://www.w3.org/1999/xlink" x="0px" y="0px"
	 width="1200px" height="1200px" viewBox="0 0 1200 1200" enable-background="new 0 0 1200 1200" xml:space="preserve">
<g>
	<path fill="#753918" d="M757.658,443.9c-19.591-26.134-32.892-56.414-37.91-88.688l-38.61-248.173
		c9.879-3.179,17.154-12.133,17.154-23.074V34.819c0-13.571-11.003-24.573-24.573-24.573H526.281
		c-13.571,0-24.574,11.002-24.574,24.573v49.146c0,10.941,7.277,19.895,17.158,23.074l-38.61,248.17
		c-5.019,32.277-18.322,62.557-37.91,88.688c-24.416,32.571-38.93,72.905-38.93,116.783v589.753c0,21.72,17.601,39.32,39.316,39.32
		h314.536c21.717,0,39.316-17.601,39.316-39.32V560.68C796.584,516.802,782.071,476.468,757.658,443.9z"/>
	<path fill="#4F291B" d="M403.416,796.585v353.849c0,21.72,17.601,39.32,39.316,39.32h314.536c21.717,0,39.316-17.601,39.316-39.32
		V796.585H403.416z"/>
	<rect x="452.562" y="600" fill="#FFFFFF" width="294.877" height="442.315"/>
	<g>
		<rect x="501.708" y="796.585" fill="#ABABAB" width="196.584" height="49.146"/>
		<circle fill="#ABABAB" cx="600" cy="698.292" r="49.146"/>
		<rect x="501.708" y="894.877" fill="#ABABAB" width="196.584" height="49.146"/>
	</g>
</g>
</svg>
