<?xml version="1.0" encoding="iso-8859-1"?>
<!-- Generator: Adobe Illustrator 19.0.0, SVG Export Plug-In . SVG Version: 6.00 Build 0)  -->
<svg version="1.1" id="Capa_1" xmlns="http://www.w3.org/2000/svg" xmlns:xlink="http://www.w3.org/1999/xlink" x="0px" y="0px"
	 viewBox="0 0 512 512" style="enable-background:new 0 0 512 512;" xml:space="preserve">
<g>
	<rect x="220.69" y="44.138" style="fill:#3E5F56;" width="70.621" height="52.966"/>
	<path style="fill:#639085;" d="M291.31,88.276H220.69c-43.878,0-79.448,35.57-79.448,79.448v315.784
		c0,15.735,12.756,28.491,28.491,28.491h172.534c15.735,0,28.491-12.756,28.491-28.491V167.724
		C370.759,123.846,335.188,88.276,291.31,88.276z"/>
	<path style="fill:#D69564;" d="M210.039,0h91.922c4.199,0,8.226,1.668,11.195,4.637s4.637,6.996,4.637,11.195v28.306
		c0,4.875-3.952,8.828-8.828,8.828H203.034c-4.875,0-8.828-3.952-8.828-8.828V15.832C194.207,7.088,201.295,0,210.039,0z"/>
	<path style="fill:#FAEDBD;" d="M335.448,158.567c0.026-5.773-2.791-11.189-7.532-14.484c-21.33-13.986-46.418-21.136-71.916-20.497
		c-25.499-0.639-50.586,6.511-71.916,20.497c-4.741,3.294-7.558,8.71-7.532,14.484v300.468c0,9.751,7.904,17.655,17.655,17.655
		h123.586c9.751,0,17.655-7.905,17.655-17.655V158.567z"/>
	<g>
		<circle style="fill:#BBB084;" cx="256" cy="220.69" r="35.31"/>
		<rect x="176.552" y="300.138" style="fill:#BBB084;" width="158.897" height="70.621"/>
	</g>
	<path style="fill:#8C8463;" d="M273.655,344.276h-35.31c-4.875,0-8.828-3.952-8.828-8.828s3.952-8.828,8.828-8.828h35.31
		c4.875,0,8.828,3.952,8.828,8.828S278.531,344.276,273.655,344.276z"/>
	<g>
		<path style="fill:#BBB084;" d="M273.655,414.897h-35.31c-4.875,0-8.828-3.952-8.828-8.828s3.952-8.828,8.828-8.828h35.31
			c4.875,0,8.828,3.952,8.828,8.828S278.531,414.897,273.655,414.897z"/>
		<path style="fill:#BBB084;" d="M300.138,450.207h-88.276c-4.875,0-8.828-3.952-8.828-8.828s3.952-8.828,8.828-8.828h88.276
			c4.875,0,8.828,3.952,8.828,8.828S305.013,450.207,300.138,450.207z"/>
	</g>
	<g>
		<path style="fill:#98623E;" d="M220.69,26.483c2.342,0.001,4.588-0.928,6.244-2.584c1.656-1.656,2.585-3.902,2.584-6.244V0
			h-17.655v17.655c-0.001,2.342,0.928,4.588,2.584,6.244C216.102,25.555,218.348,26.484,220.69,26.483z"/>
		<path style="fill:#98623E;" d="M256,26.483c2.342,0.001,4.588-0.928,6.244-2.584c1.656-1.656,2.585-3.902,2.584-6.244V0h-17.655
			v17.655c-0.001,2.342,0.928,4.588,2.584,6.244C251.412,25.555,253.658,26.484,256,26.483z"/>
		<path style="fill:#98623E;" d="M291.31,26.483c2.342,0.001,4.588-0.928,6.244-2.584c1.656-1.656,2.585-3.902,2.584-6.244V0
			h-17.655v17.655c-0.001,2.342,0.928,4.588,2.584,6.244C286.723,25.555,288.969,26.484,291.31,26.483z"/>
	</g>
</g>
<g>
</g>
<g>
</g>
<g>
</g>
<g>
</g>
<g>
</g>
<g>
</g>
<g>
</g>
<g>
</g>
<g>
</g>
<g>
</g>
<g>
</g>
<g>
</g>
<g>
</g>
<g>
</g>
<g>
</g>
</svg>
