<?xml version="1.0" encoding="utf-8"?>
<!-- Generator: Adobe Illustrator 16.0.0, SVG Export Plug-In . SVG Version: 6.00 Build 0)  -->
<!DOCTYPE svg PUBLIC "-//W3C//DTD SVG 1.1//EN" "http://www.w3.org/Graphics/SVG/1.1/DTD/svg11.dtd">
<svg version="1.1" id="Layer_1" xmlns="http://www.w3.org/2000/svg" xmlns:xlink="http://www.w3.org/1999/xlink" x="0px" y="0px"
	 width="1200px" height="1200px" viewBox="0 0 1200 1200" enable-background="new 0 0 1200 1200" xml:space="preserve">
<g>
	<path fill="#DAE8E8" d="M212.903,390.968c-30.968,0-58.064,25.161-58.064,56.129v303.871c0,30.968,27.097,56.129,58.064,56.129
		c30.967,0,58.064-25.161,58.064-56.129V447.097C270.968,416.129,243.871,390.968,212.903,390.968z"/>
	<path fill="#DAE8E8" d="M406.451,390.968c-30.967,0-58.064,25.161-58.064,56.129v303.871c0,30.968,27.098,56.129,58.064,56.129
		c30.968,0,58.063-25.161,58.063-56.129V447.097C464.516,416.129,437.419,390.968,406.451,390.968z"/>
	<path fill="#DAE8E8" d="M580.646,390.968c-30.969,0-58.064,25.161-58.064,56.129v303.871c0,30.968,27.097,56.129,58.064,56.129
		c30.967,0,58.063-25.161,58.063-56.129V447.097C638.71,416.129,611.613,390.968,580.646,390.968z"/>
	<path fill="#DAE8E8" d="M754.839,390.968c-30.968,0-58.063,25.161-58.063,56.129v303.871c0,30.968,27.097,56.129,58.063,56.129
		s58.064-25.161,58.064-56.129V447.097C812.903,416.129,785.807,390.968,754.839,390.968z"/>
</g>
<path fill="#FF9D00" d="M193.548,809.032c-30.968,0-58.064-25.161-58.064-56.129V447.097c0-30.968,27.097-56.129,58.064-56.129
	c30.967,0,58.064,25.161,58.064,56.129v303.871C251.613,783.871,224.516,809.032,193.548,809.032z"/>
<path fill="#F79406" d="M135.484,447.097c0-30.968,27.097-56.129,58.064-56.129c30.967,0,58.064,25.161,58.064,56.129v307.742"/>
<path fill="#D3E2E2" d="M387.097,809.032c-30.968,0-58.064-25.161-58.064-56.129V447.097c0-30.968,27.097-56.129,58.064-56.129
	s58.064,25.161,58.064,56.129v303.871C445.161,783.871,418.064,809.032,387.097,809.032z"/>
<path fill="#C2D3D2" d="M329.032,447.097c0-30.968,27.097-56.129,58.064-56.129c30.966,0,58.064,25.161,58.064,56.129v307.742"/>
<g>
	<path fill="#D3E2E2" d="M561.29,809.032c-30.968,0-58.064-25.161-58.064-56.129V447.097c0-30.968,27.098-56.129,58.064-56.129
		s58.063,25.161,58.063,56.129v303.871C619.354,783.871,592.258,809.032,561.29,809.032z"/>
	<path fill="#D3E2E2" d="M735.484,809.032c-30.969,0-58.065-25.161-58.065-56.129V447.097c0-30.968,27.098-56.129,58.065-56.129
		c30.967,0,58.063,25.161,58.063,56.129v303.871C793.549,783.871,766.451,809.032,735.484,809.032z"/>
</g>
<g>
	<path fill="#C2D3D2" d="M503.226,447.097c0-30.968,27.098-56.129,58.064-56.129s58.064,25.161,58.064,56.129v307.742"/>
	<path fill="#C2D3D2" d="M677.419,447.097c0-30.968,27.098-56.129,58.065-56.129c30.967,0,58.063,25.161,58.063,56.129v307.742"/>
</g>
<path fill="#DAE8E8" d="M1122.581,421.936L1122.581,421.936c30.968,0,58.063,25.161,58.063,58.064v241.936
	c0,30.969-27.097,58.064-58.063,58.064l0,0"/>
<path fill="#BECCCC" d="M1124.516,406.451h-1.935v-38.709c0-46.452-34.839-77.419-79.355-77.419H79.355
	C36.774,290.323,0,323.226,0,367.742v464.516c0,46.452,36.774,77.42,79.355,77.42h963.871c42.581,0,79.354-32.902,79.354-77.42
	v-38.709h1.936c42.581,0,75.484-30.968,75.484-71.613V478.064C1200,437.419,1167.097,406.451,1124.516,406.451z M1083.871,832.258
	c0,25.161-17.42,38.71-40.646,38.71H79.355c-21.291,0-40.646-15.482-40.646-38.71V367.742c0-25.162,19.355-38.71,40.646-38.71
	h963.871c23.227,0,40.646,15.483,40.646,38.71L1083.871,832.258L1083.871,832.258z M1161.29,721.936
	c0,21.29-15.483,32.903-36.774,32.903h-1.935V445.161h1.935c21.291,0,36.774,11.613,36.774,32.903V721.936z"/>
<path fill="#D3E2E2" d="M636.774,870.968H79.355c-21.291,0-40.646-15.482-40.646-38.71V367.742c0-15.484,7.742-25.162,19.355-34.839
	l-30.968-23.227C9.677,323.226,0,342.581,0,367.742v464.516c0,46.452,36.774,77.42,79.355,77.42h598.064L636.774,870.968z"/>
<g>
	<path fill="#DAE8E8" d="M929.839,390c-30.968,0-58.063,25.161-58.063,56.129V750c0,30.968,27.097,56.129,58.063,56.129
		s58.064-25.161,58.064-56.129V446.129C987.903,415.161,960.807,390,929.839,390z"/>
	<path fill="#D3E2E2" d="M910.484,808.064c-30.969,0-58.065-25.161-58.065-56.129V446.129c0-30.968,27.098-56.129,58.065-56.129
		c30.967,0,58.063,25.161,58.063,56.129V750C968.549,782.903,941.451,808.064,910.484,808.064z"/>
	<path fill="#C2D3D2" d="M852.419,446.129c0-30.968,27.098-56.129,58.065-56.129c30.967,0,58.063,25.161,58.063,56.129v307.742"/>
</g>
</svg>
