<?xml version="1.0" encoding="utf-8"?>
<!-- Generator: Adobe Illustrator 16.0.0, SVG Export Plug-In . SVG Version: 6.00 Build 0)  -->
<!DOCTYPE svg PUBLIC "-//W3C//DTD SVG 1.1//EN" "http://www.w3.org/Graphics/SVG/1.1/DTD/svg11.dtd">
<svg version="1.1" id="Layer_1" xmlns="http://www.w3.org/2000/svg" xmlns:xlink="http://www.w3.org/1999/xlink" x="0px" y="0px"
	 width="325.98px" height="113.391px" viewBox="0 0 325.98 113.391" enable-background="new 0 0 325.98 113.391"
	 xml:space="preserve">
<path fill="#333333" d="M216.253,33.176c-0.274-0.913-1.062-1.576-2.007-1.698c-6.008-0.774-16.249-1.02-27.389,4.231
	c-5.699,2.687-10.113,6.096-13.307,9.052H152.43c-3.193-2.956-7.607-6.365-13.307-9.052c-11.139-5.251-21.38-5.006-27.388-4.231
	c-0.947,0.122-1.733,0.784-2.008,1.699c-0.41,1.365-0.827,2.89-1.224,4.562c-1.183,4.989-2.177,11.291-2.208,18.591
	c-0.042,10.089,1.771,18.317,3.435,23.855c0.272,0.905,1.047,1.57,1.984,1.695c6.012,0.809,16.398,1.119,27.647-4.275
	c5.593-2.683,9.925-6.067,13.067-9.014h1.419h18.283h1.42c3.142,2.946,7.475,6.331,13.067,9.014
	c11.25,5.395,21.637,5.084,27.647,4.275c0.937-0.125,1.712-0.79,1.984-1.695c1.663-5.538,3.477-13.767,3.435-23.855
	C219.645,46.583,217.886,38.615,216.253,33.176z"/>
<g>
	<path fill="#4D4D4D" d="M216.253,33.176c-0.274-0.913-1.062-1.576-2.007-1.698c-6.008-0.774-16.249-1.02-27.389,4.231
		c-5.699,2.687-10.113,6.096-13.307,9.052h-1.463h-18.533h-1.125c-3.193-2.956-7.607-6.365-13.307-9.052
		c-11.139-5.251-21.38-5.006-27.388-4.231c-0.947,0.122-1.733,0.785-2.008,1.699c-0.41,1.365-0.827,2.89-1.224,4.562
		c6.112-0.399,15.211-1.974,25.253,0.481c5.763,1.409,16.003,5.01,19.196,7.966l14.156,5.146c3.192-2.957,7.606-6.365,13.306-9.052
		c0.261-0.123,0.521-0.243,0.78-0.359c14.947-6.731,31.912,4.267,32.045,20.66c0,0.105,0.002,0.213,0.002,0.319
		c0.031,7.615-0.994,14.17-2.215,19.309c1.181-0.082,2.264-0.199,3.232-0.329c0.939-0.125,1.719-0.788,1.99-1.696
		c1.664-5.539,3.477-13.767,3.435-23.854C219.645,46.583,217.886,38.615,216.253,33.176z"/>
	<path fill="#4D4D4D" d="M152.43,53.605c-0.195,0-0.393-0.029-0.588-0.091c-2.778-0.874-6.341-1.925-9.255-2.296
		c-3.192-0.406-6.44-0.48-9.654-0.222c-1.079,0.089-2.023-0.717-2.11-1.795c-0.087-1.078,0.716-2.023,1.795-2.11
		c3.483-0.281,7.004-0.2,10.464,0.241c3.222,0.41,7.002,1.521,9.936,2.444c1.032,0.324,1.605,1.424,1.281,2.456
		C154.035,53.07,153.263,53.605,152.43,53.605z"/>
	<path fill="#4D4D4D" d="M137.34,65.225c-1.036,0-1.901-0.812-1.955-1.858c-0.055-1.081,0.776-2.002,1.856-2.057
		c1.766-0.091,3.547-0.272,5.296-0.54c3.131-0.479,6.244-1.248,9.254-2.286c1.023-0.351,2.138,0.191,2.49,1.214
		s-0.191,2.138-1.213,2.49c-3.231,1.114-6.575,1.939-9.938,2.454c-1.878,0.288-3.792,0.482-5.689,0.58
		C137.408,65.224,137.374,65.225,137.34,65.225z"/>
	<path fill="#4D4D4D" d="M173.551,53.605c-0.833,0-1.605-0.535-1.868-1.372c-0.325-1.032,0.249-2.132,1.28-2.456
		c2.934-0.923,6.715-2.034,9.936-2.444c3.461-0.441,6.982-0.522,10.465-0.241c1.078,0.088,1.883,1.032,1.795,2.11
		c-0.087,1.078-1.035,1.882-2.109,1.795c-3.214-0.259-6.462-0.185-9.654,0.222c-2.914,0.372-6.477,1.422-9.256,2.296
		C173.943,53.576,173.746,53.605,173.551,53.605z"/>
	<path fill="#4D4D4D" d="M188.641,65.225c-0.033,0-0.067-0.001-0.102-0.003c-1.896-0.097-3.811-0.292-5.689-0.579
		c-3.362-0.516-6.705-1.342-9.938-2.455c-1.021-0.353-1.565-1.468-1.213-2.49s1.467-1.565,2.49-1.214
		c3.01,1.037,6.123,1.807,9.254,2.287c1.749,0.267,3.531,0.448,5.296,0.539c1.081,0.055,1.911,0.976,1.856,2.057
		C190.542,64.413,189.676,65.225,188.641,65.225z"/>
</g>
<polygon fill="#F2F2F2" points="172.977,68.059 169.459,68.592 152.429,68.592 152.429,45.429 173.551,45.429 "/>
<path fill="#E6E6E6" d="M152.429,44.76v3.66h0.16c9.317,0,16.87,7.553,16.87,16.87v3.301h4.092V44.76H152.429z"/>
</svg>
