<?xml version="1.0" encoding="iso-8859-1"?>
<!-- Generator: Adobe Illustrator 19.0.0, SVG Export Plug-In . SVG Version: 6.00 Build 0)  -->
<svg version="1.1" id="Capa_1" xmlns="http://www.w3.org/2000/svg" xmlns:xlink="http://www.w3.org/1999/xlink" x="0px" y="0px"
	 viewBox="0 0 511.998 511.998" style="enable-background:new 0 0 511.998 511.998;" xml:space="preserve">
<path style="fill:#FFAC33;" d="M470.015,102.953c0-20.413,10.351-10.206,20.557-20.413c20.443-20.413,30.721-51.048,10.307-71.461
	c-20.428-20.413-51.018-10.062-71.446,10.366c-10.206,10.206,0.044,20.557-20.37,20.557h-81.668l10.206,10.077
	c0,0,51.048,71.374,61.255,61.154c-10.206,10.221,61.095,61.211,61.095,61.211l10.062,10.178v-81.669H470.015z"/>
<path style="fill:#CCD6DD;" d="M439.69,215.243l-71.446-71.461l-71.461-71.446c-10.206,10.206-61.255,0-81.667,20.413
	c-3.754,3.754-7.074,7.074-10.206,10.206l-30.634,30.62L16.928,290.919c-22.55,22.565-22.55,59.133,0,81.668l122.494,122.509
	c22.55,22.536,59.118,22.536,81.667,0l142.922-142.922l45.057-45.057c3.133-3.119,6.439-6.453,10.206-10.206
	C439.69,276.483,429.482,225.449,439.69,215.243"/>
<path style="fill:#55ACEE;" d="M465.207,210.139c-14.104,14.104-26.736,24.311-40.827,10.206L291.666,87.644
	c-14.091-14.104-3.883-26.736,10.206-40.841c14.104-14.091,36.943-14.091,51.048,0l112.288,112.288
	C479.313,173.196,479.313,196.034,465.207,210.139"/>
<g>
	<path style="fill:#99AAB5;" d="M181.283,460.665c-3.696,0-7.391-1.415-10.206-4.23c-5.645-5.645-5.645-14.769,0-20.413
		l173.239-173.254c5.645-5.63,14.769-5.63,20.413,0c5.645,5.645,5.645,14.783,0,20.428L191.49,456.435
		C188.675,459.25,184.98,460.665,181.283,460.665"/>
	<path style="fill:#99AAB5;" d="M123.537,402.918c-3.696,0-7.391-1.415-10.206-4.23c-5.645-5.645-5.645-14.769,0-20.413
		l173.239-173.254c5.645-5.63,14.769-5.63,20.413,0c5.645,5.645,5.645,14.783,0,20.413L133.743,398.688
		C130.928,401.503,127.233,402.918,123.537,402.918"/>
	<path style="fill:#99AAB5;" d="M65.791,345.172c-3.696,0-7.391-1.415-10.206-4.23c-5.645-5.645-5.645-14.769,0-20.413
		l173.239-173.254c5.645-5.63,14.769-5.63,20.413,0c5.645,5.645,5.645,14.783,0,20.413L75.997,340.942
		C73.182,343.757,69.487,345.172,65.791,345.172"/>
</g>
<g>
</g>
<g>
</g>
<g>
</g>
<g>
</g>
<g>
</g>
<g>
</g>
<g>
</g>
<g>
</g>
<g>
</g>
<g>
</g>
<g>
</g>
<g>
</g>
<g>
</g>
<g>
</g>
<g>
</g>
</svg>
