<?xml version="1.0" encoding="utf-8"?>
<!-- Generator: Adobe Illustrator 16.0.0, SVG Export Plug-In . SVG Version: 6.00 Build 0)  -->
<!DOCTYPE svg PUBLIC "-//W3C//DTD SVG 1.1//EN" "http://www.w3.org/Graphics/SVG/1.1/DTD/svg11.dtd">
<svg version="1.1" id="Capa_1" xmlns="http://www.w3.org/2000/svg" xmlns:xlink="http://www.w3.org/1999/xlink" x="0px" y="0px"
	 width="1200px" height="1200px" viewBox="0 0 1200 1200" enable-background="new 0 0 1200 1200" xml:space="preserve">
<path fill="#E4E7E9" d="M697.344,284.488V125.407H502.651v159.082c0,7.277-4.728,13.652-11.639,15.928
	C379.27,337.188,298.598,442.389,298.598,566.441v595.843c0,20.829,16.885,37.716,37.716,37.716h527.373
	c20.829,0,37.716-16.885,37.716-37.716V566.441c0-124.053-80.674-229.254-192.415-266.025
	C702.071,298.141,697.344,291.766,697.344,284.488z"/>
<g opacity="0.1">
	<path d="M298.598,871.402v290.882c0,20.829,16.885,37.716,37.716,37.716h527.373c20.829,0,37.716-16.885,37.716-37.716V871.402
		H298.598L298.598,871.402z"/>
</g>
<path fill="#3E4B58" d="M718.253,125.407H481.745c-11.191,0-20.267-9.073-20.267-20.266V20.267C461.479,9.075,470.552,0,481.745,0
	H718.25c11.191,0,20.267,9.073,20.267,20.267v84.876C738.517,116.334,729.444,125.407,718.253,125.407z"/>
<g opacity="0.1">
	<path d="M718.253,0h-59.027c11.191,0,20.266,9.073,20.266,20.267v84.876c0,11.191-9.072,20.267-20.266,20.267h59.027
		c11.19,0,20.266-9.073,20.266-20.267V20.267C738.517,9.073,729.444,0,718.253,0z"/>
</g>
<g opacity="0.6">
	<circle fill="#FFFFFF" cx="599.999" cy="464.319" r="76.395"/>
</g>
<g opacity="0.1">
	<path d="M708.985,300.417c-6.912-2.273-11.639-8.651-11.639-15.928V125.407H502.363v52.448h133.743v132.839
		c0,7.277,4.728,13.652,11.64,15.928C759.488,363.393,840.16,468.595,840.16,592.646v572.907c0,15.37-9.209,28.57-22.399,34.444
		h45.921c20.829,0,37.716-16.885,37.716-37.716V566.441C901.399,442.389,820.726,337.186,708.985,300.417z"/>
</g>
<g>
	<path fill="#59A8ED" d="M774.971,686.345H425.026c-16.249,0-29.421-13.172-29.421-29.421v-40.481
		c0-16.249,13.172-29.421,29.421-29.421h349.944c16.25,0,29.422,13.172,29.422,29.421v40.481
		C804.39,673.173,791.218,686.345,774.971,686.345z"/>
	<path fill="#59A8ED" d="M716.38,856.93H483.618c-11.461,0-20.752-9.291-20.752-20.752v-32.145c0-11.461,9.291-20.751,20.752-20.751
		H716.38c11.461,0,20.751,9.29,20.751,20.751v32.145C737.131,847.639,727.841,856.93,716.38,856.93z"/>
</g>
<g>
	<path fill="#3E4B58" d="M735.249,752.392H464.748c-9.707,0-17.578-7.87-17.578-17.578s7.871-17.578,17.578-17.578h270.501
		c9.71,0,17.578,7.87,17.578,17.578S744.959,752.392,735.249,752.392z"/>
	<path fill="#3E4B58" d="M641.395,1138.98h-82.793c-9.708,0-17.578-7.87-17.578-17.578s7.87-17.578,17.578-17.578h82.793
		c9.71,0,17.577,7.87,17.577,17.578S651.104,1138.98,641.395,1138.98z"/>
</g>
</svg>
